<?xml version="1.0" encoding="UTF-8" standalone="no"?>
<svg
   width="250"
   height="250"
   viewBox="0 -7 250 250"
   version="1.1"
   id="svg6"
   sodipodi:docname="logo-boldblocks.svg"
   inkscape:export-xdpi="98.304001"
   inkscape:export-ydpi="98.304001"
   inkscape:version="1.1 (c68e22c387, 2021-05-23)"
   xmlns:inkscape="http://www.inkscape.org/namespaces/inkscape"
   xmlns:sodipodi="http://sodipodi.sourceforge.net/DTD/sodipodi-0.dtd"
   xmlns="http://www.w3.org/2000/svg"
   xmlns:svg="http://www.w3.org/2000/svg">
  <defs
     id="defs10" />
  <sodipodi:namedview
     id="namedview8"
     pagecolor="#ffffff"
     bordercolor="#666666"
     borderopacity="1.0"
     inkscape:pageshadow="2"
     inkscape:pageopacity="0.0"
     inkscape:pagecheckerboard="0"
     showgrid="false"
     inkscape:zoom="2.1298056"
     inkscape:cx="100.71342"
     inkscape:cy="115.26873"
     inkscape:window-width="1920"
     inkscape:window-height="1011"
     inkscape:window-x="-9"
     inkscape:window-y="-9"
     inkscape:window-maximized="1"
     inkscape:current-layer="svg6" />
  <path
     d="M59.082 21.875v192.582l35.794-.005c45.34-.007 52.513-.342 62.736-2.933 12.228-3.1 21.693-8.206 29.975-16.171 5.296-5.093 8.252-9.067 11.129-14.961 4.092-8.385 5.127-13.511 5.107-25.28-.015-8.818-.387-11.763-2.155-17.045-4.972-14.859-14.994-24.693-31.634-31.04-4.592-1.751-6.122-2.543-5.829-3.017.128-.207 2.376-2.084 4.996-4.17 10.217-8.138 14.316-13.605 17.125-22.834 1.027-3.375 1.08-3.956 1.096-11.832.014-7.387-.08-8.645-.877-11.636-1.219-4.572-4.274-10.686-6.958-13.92-6.082-7.33-16.913-13.038-29.67-15.637-5.985-1.22-15.288-1.53-55.04-1.83zm55.27 16.84a2.68 2.68 0 0 1 1.241.3l20.526 10.642a2.667 2.667 0 0 1 1.444 2.372 2.667 2.667 0 0 1-1.438 2.376l-20.526 10.707a2.674 2.674 0 0 1-2.49-.007L92.885 54.397a2.669 2.669 0 0 1-1.424-2.368 2.67 2.67 0 0 1 1.43-2.365l20.224-10.64a2.674 2.674 0 0 1 1.238-.309zM91.004 57.874c.454-.01.911.1 1.33.328l18.823 10.23a2.674 2.674 0 0 1 1.398 2.35v24.202a2.65 2.65 0 0 1-1.33 2.313 2.67 2.67 0 0 1-1.346.367 2.67 2.67 0 0 1-1.322-.354l-18.824-10.7a2.68 2.68 0 0 1-1.353-2.327v-23.73a2.65 2.65 0 0 1 1.308-2.3 2.67 2.67 0 0 1 1.316-.38zm47.351 0a2.68 2.68 0 0 1 1.316.378 2.652 2.652 0 0 1 1.308 2.3v23.73a2.68 2.68 0 0 1-1.353 2.327L120.801 97.31a2.67 2.67 0 0 1-1.322.354 2.67 2.67 0 0 1-1.346-.367 2.65 2.65 0 0 1-1.33-2.313V70.782c0-.981.536-1.882 1.398-2.35l18.824-10.23a2.668 2.668 0 0 1 1.33-.328zm-17.168 59.07a3.374 3.374 0 0 1 1.566.38l25.927 13.44a3.368 3.368 0 0 1 1.824 2.996 3.369 3.369 0 0 1-1.816 3.002l-25.928 13.525a3.375 3.375 0 0 1-3.144-.01L94.07 136.752a3.371 3.371 0 0 1-1.798-2.99 3.374 3.374 0 0 1 1.806-2.988l25.545-13.441a3.379 3.379 0 0 1 1.564-.39zm-29.492 24.2a3.375 3.375 0 0 1 1.679.413l23.776 12.922a3.377 3.377 0 0 1 1.765 2.97v30.57a3.344 3.344 0 0 1-1.68 2.92 3.372 3.372 0 0 1-1.699.464 3.37 3.37 0 0 1-1.67-.447L90.089 177.44a3.387 3.387 0 0 1-1.71-2.938v-29.975a3.35 3.35 0 0 1 1.653-2.905 3.375 3.375 0 0 1 1.663-.479zm59.81 0c.573.01 1.144.17 1.661.478a3.35 3.35 0 0 1 1.653 2.905v29.975a3.386 3.386 0 0 1-1.71 2.937l-23.776 13.517a3.374 3.374 0 0 1-1.67.447 3.37 3.37 0 0 1-1.7-.464 3.347 3.347 0 0 1-1.68-2.92v-30.57c0-1.24.677-2.378 1.766-2.97l23.776-12.922a3.37 3.37 0 0 1 1.68-.414z"
     id="path2" />
  <path
     d="M69.46-.568v8.392h-1.507q-20.097 0-27.257 6.832-6.154 5.875-6.154 20.14v51.067q0 23.135-23.74 31.646 23.74 8.991 23.74 31.887v51.067q0 16.183 8.29 21.937 7.284 5.156 25.12 5.156h1.508v8.271h-3.266q-26.88 0-36.928-9.23-8.667-7.913-8.667-25.655v-51.306q0-24.574-20.6-27.691v-8.632q20.6-2.996 20.6-27.451V34.076q0-20.139 11.557-27.812Q42.454-.568 66.194-.568zm112.236 0v8.392h1.507q20.097 0 27.256 6.832 6.155 5.875 6.155 20.14v51.067q0 23.135 23.74 31.646-23.74 8.991-23.74 31.887v51.067q0 16.183-8.29 21.937-7.285 5.156-25.12 5.156h-1.508v8.271h3.266q26.88 0 36.928-9.23 8.666-7.913 8.666-25.655v-51.306q0-24.574 20.6-27.691v-8.632q-20.6-2.996-20.6-27.451V34.076q0-20.139-11.556-27.812-10.298-6.832-34.038-6.832z"
     id="path4" />
</svg>
